<?xml version="1.0" standalone="no"?>
<!DOCTYPE svg PUBLIC "-//W3C//DTD SVG 20010904//EN"
 "http://www.w3.org/TR/2001/REC-SVG-20010904/DTD/svg10.dtd">
<svg version="1.0" xmlns="http://www.w3.org/2000/svg"
 width="100.000000pt" height="100.000000pt" viewBox="0 0 100.000000 100.000000"
 preserveAspectRatio="xMidYMid meet">
<metadata>
Created by potrace 1.11, written by Peter Selinger 2001-2013
</metadata>
<g transform="translate(0.000000,100.000000) scale(0.100000,-0.100000)"
fill="#000000" stroke="none">
<path d="M25 774 l-26 -26 3 -274 c3 -247 5 -275 21 -291 16 -17 52 -18 473
-21 l454 -3 26 28 25 27 -3 273 c-3 246 -5 274 -21 290 -16 17 -52 18 -472 21
l-454 3 -26 -27z m262 -199 c27 -35 50 -64 53 -64 3 0 26 29 53 64 45 61 50
65 87 65 l40 0 0 -160 0 -160 -40 0 -40 0 0 107 0 107 -45 -62 c-25 -34 -49
-62 -54 -62 -5 0 -30 28 -55 62 l-46 62 0 -107 0 -107 -40 0 -40 0 0 160 0
160 40 0 c37 0 42 -4 87 -65z m493 -15 l0 -80 45 0 c25 0 45 -3 45 -8 0 -4
-12 -20 -27 -37 -15 -16 -44 -48 -65 -72 l-37 -43 -53 62 c-29 33 -62 69 -72
79 -19 19 -19 19 32 19 l52 0 0 80 0 80 40 0 40 0 0 -80z"/>
</g>
</svg>
